<?xml version="1.0" encoding="UTF-8"?>
<svg id="Layer_1" xmlns="http://www.w3.org/2000/svg" xmlns:xlink="http://www.w3.org/1999/xlink" version="1.1" viewBox="0 0 457.2 453.49">
  <!-- Generator: Adobe Illustrator 29.0.1, SVG Export Plug-In . SVG Version: 2.1.0 Build 192)  -->
  <defs>
    <style>
      .st0 {
        fill: #fff3c8;
        isolation: isolate;
        opacity: .3;
      }

      .st1, .st2, .st3 {
        fill: none;
      }

      .st4 {
        fill: #fcd34d;
      }

      .st5 {
        clip-path: url(#clippath);
      }

      .st2 {
        stroke-linecap: round;
        stroke-linejoin: round;
      }

      .st2, .st3 {
        stroke: #fcd34d;
        stroke-width: 16px;
      }

      .st3 {
        stroke-miterlimit: 10;
      }
    </style>
    <clipPath id="clippath">
      <path class="st1" d="M424.87,231.05c.24,91.3-90.58,138.16-196,138.43S32.07,327.65,31.84,236.35c-.23-91.3,68.33-197.73,196.18-197.48,127.85.25,196.62,100.89,196.85,192.18Z"/>
    </clipPath>
  </defs>
  <path class="st2" d="M343.23,76.99c2.66-25.24,1.05-55.4-19.61-63.55-19.44-7.67-39.8,7.88-54.82,24.49-13.01-3.32-26.49-5.1-40.32-5.07-16.61.04-32.72,2.7-48.08,7.49-14.9-16.12-34.71-30.68-53.64-23.21-21.38,8.43-22.36,40.45-19.31,66.18-42.47,39.04-69.47,94.93-69.34,146.39.24,91.3,85.81,134.04,191.23,133.77,105.42-.27,190.77-43.45,190.53-134.75-.14-54.04-30.24-112.82-76.64-151.74h0Z"/>
  <ellipse class="st3" cx="148.01" cy="189.46" rx="56.59" ry="59.04"/>
  <ellipse class="st4" cx="160.18" cy="192.3" rx="25.76" ry="32.05"/>
  <ellipse class="st3" cx="308.1" cy="189.46" rx="56.59" ry="59.04"/>
  <path class="st4" d="M92.55,166.31l104.96-15.07s-19.87-31.21-52.48-26.72c-42.8,5.9-52.48,41.79-52.48,41.79h0Z"/>
  <ellipse class="st4" cx="300.72" cy="193.52" rx="25.76" ry="32.05"/>
  <path class="st3" d="M56.65,294.65c-18.88,5.41-32.77,23.75-32.77,45.53,0,1.98.13,3.93.35,5.85-7.01,8.34-11.28,19.35-11.28,31.42,0,26.04,19.85,47.15,44.33,47.15,11.06,0,21.17-4.32,28.94-11.45,7.77,7.13,17.88,11.45,28.94,11.45,8.72,0,16.84-2.69,23.69-7.31,7.76,13.69,21.87,22.84,37.99,22.84,11.06,0,21.17-4.32,28.94-11.45,7.77,7.13,17.88,11.45,28.94,11.45,11.81,0,22.54-4.92,30.48-12.94,4.68,1.79,9.73,2.77,14.99,2.77,7.62,0,14.79-2.05,21.06-5.65,9.16-1.06,17.48-5.09,24.09-11.17,7.77,7.13,17.88,11.45,28.94,11.45,11.81,0,22.54-4.92,30.48-12.94,4.68,1.79,9.73,2.77,14.99,2.77,24.48,0,44.33-21.11,44.33-47.15,0-21.11-13.05-38.98-31.03-44.99-2.3-9.62-7.39-18.07-14.3-24.3"/>
  <path class="st2" d="M65.04,232.04s-3-.61-7.37-4.41c-7.01-6.1-13.75-9.83-17.85-12.98-4.87-3.75-9.97-7.17-16.1-7.6-1.62-.11-3.42-.17-5.42-.14"/>
  <path class="st2" d="M65.04,232.04s-37.48-2.2-45.85-.06"/>
  <path class="st2" d="M65.04,232.04s-35.15,16.11-42.26,28.61"/>
  <path class="st4" d="M366.29,166.31l-104.96-15.07s18.98-27.16,52.48-26.72c43.2.57,52.48,41.79,52.48,41.79h0Z"/>
  <g class="st5">
    <g>
      <path class="st0" d="M379.72,122.59s-29.4-1.29-41.24,3.84c-14.6,6.33-53.26,66.58-110.47,66.58h0c-57.21,0-95.87-60.25-110.47-66.58-11.83-5.13-41.24-3.84-41.24-3.84-23.43.4-45.26,56.05-45.26,56.05l6.92,3.2s16.39-23.49,29.13-34.68c4.45-3.9,11.44-1.91,13.14,3.76l.08.28c.17.57.28,1.15.32,1.74.73,10.17,8.97,106.8,59.68,106.8,54.97,0,62.34-46.28,87.71-46.28h0c25.36,0,32.73,46.28,87.7,46.28,50.7,0,58.95-96.64,59.68-106.8.04-.59.15-1.17.32-1.74l.08-.28c1.7-5.67,8.69-7.66,13.14-3.76,12.75,11.19,29.13,34.68,29.13,34.68l6.92-3.2s-21.83-55.65-45.26-56.05h-.01,0Z"/>
      <path class="st3" d="M380.23,122.45s-29.4-1.29-41.24,3.84c-14.6,6.33-53.26,66.58-110.47,66.58h0c-57.21,0-95.87-60.25-110.47-66.58-11.83-5.13-41.24-3.84-41.24-3.84-23.43.4-45.26,56.05-45.26,56.05l6.92,3.2s16.39-23.49,29.13-34.68c4.45-3.9,11.44-1.91,13.14,3.76l.08.28c.17.57.28,1.15.32,1.74.73,10.17,8.97,106.8,59.68,106.8,54.97,0,62.34-46.28,87.71-46.28h0c25.36,0,32.73,46.28,87.7,46.28,50.7,0,58.95-96.64,59.68-106.8.04-.59.15-1.17.32-1.74l.08-.28c1.7-5.67,8.69-7.66,13.14-3.76,12.75,11.19,29.13,34.68,29.13,34.68l6.92-3.2s-21.83-55.65-45.26-56.05h-.01,0Z"/>
    </g>
  </g>
  <path class="st2" d="M396.42,232.03s3-.61,7.37-4.41c7.01-6.1,13.75-9.83,17.85-12.98,4.87-3.75,9.97-7.17,16.1-7.6,1.62-.11,3.42-.17,5.42-.14"/>
  <path class="st2" d="M396.42,232.03s37.48-2.2,45.85-.06"/>
  <path class="st2" d="M396.42,232.03s35.15,16.11,42.26,28.61"/>
</svg>